<svg xmlns="http://www.w3.org/2000/svg" width="800" height="600" viewBox="0 0 800 600">
  <defs>
    <linearGradient id="skyGradient" x1="0%" y1="0%" x2="0%" y2="100%">
      <stop offset="0%" stop-color="#f8c58d" />
      <stop offset="100%" stop-color="#f5a553" />
    </linearGradient>
    <linearGradient id="desertGradient" x1="0%" y1="0%" x2="0%" y2="100%">
      <stop offset="0%" stop-color="#d5a770" />
      <stop offset="100%" stop-color="#b38b57" />
    </linearGradient>
  </defs>
  <rect width="800" height="600" fill="url(#skyGradient)" />
  
  <!-- Sun -->
  <circle cx="650" cy="100" r="60" fill="#ffcc00" />
  <circle cx="650" cy="100" r="70" fill="#ffcc00" opacity="0.3" />
  <circle cx="650" cy="100" r="80" fill="#ffcc00" opacity="0.1" />
  
  <!-- Desert dunes -->
  <path d="M0,300 Q100,250 200,300 T400,250 T600,300 T800,250 V600 H0 Z" fill="url(#desertGradient)" />
  <path d="M0,350 Q150,300 300,350 T600,300 T800,350 V600 H0 Z" fill="#c99c67" opacity="0.7" />
  <path d="M0,400 Q200,370 400,420 T800,400 V600 H0 Z" fill="#b38b57" opacity="0.5" />
  
  <!-- Small details -->
  <path d="M600,380 L620,350 L640,380 Z" fill="#996633" opacity="0.6" /> <!-- Small pyramid -->
  <path d="M500,400 C505,395 510,395 515,400 C520,405 520,410 515,415 C510,420 505,420 500,415 C495,410 495,405 500,400 Z" fill="#996633" opacity="0.6" /> <!-- Small rock -->
  <path d="M700,420 C703,417 706,417 709,420 C712,423 712,426 709,429 C706,432 703,432 700,429 C697,426 697,423 700,420 Z" fill="#996633" opacity="0.6" /> <!-- Small rock -->
</svg>
