<svg xmlns="http://www.w3.org/2000/svg" width="800" height="600" viewBox="0 0 800 600">
  <defs>
    <linearGradient id="skyGradient" x1="0%" y1="0%" x2="0%" y2="100%">
      <stop offset="0%" stop-color="#b0c4de" />
      <stop offset="100%" stop-color="#f0f8ff" />
    </linearGradient>
    <linearGradient id="groundGradient" x1="0%" y1="0%" x2="0%" y2="100%">
      <stop offset="0%" stop-color="#b39c7d" />
      <stop offset="100%" stop-color="#d5c6a8" />
    </linearGradient>
  </defs>
  
  <!-- Sky background -->
  <rect width="800" height="600" fill="url(#skyGradient)" />
  
  <!-- Distant mountains -->
  <path d="M0,200 L100,150 L200,180 L300,130 L400,190 L500,140 L600,170 L700,120 L800,160 V600 H0 Z" fill="#708238" opacity="0.3" />
  
  <!-- Ground -->
  <path d="M0,300 Q100,280 200,310 T400,290 T600,320 T800,290 V600 H0 Z" fill="url(#groundGradient)" />
  
  <!-- Village elements -->
  <!-- House 1 -->
  <rect x="100" y="320" width="80" height="60" fill="#d2b48c" />
  <polygon points="100,320 140,280 180,320" fill="#8b4513" />
  <rect x="125" y="340" width="30" height="40" fill="#8b4513" /> <!-- Door -->
  <rect x="120" y="330" width="15" height="15" fill="#6495ed" /> <!-- Window -->
  <rect x="145" y="330" width="15" height="15" fill="#6495ed" /> <!-- Window -->
  
  <!-- House 2 -->
  <rect x="220" y="330" width="70" height="50" fill="#deb887" />
  <polygon points="220,330 255,290 290,330" fill="#a0522d" />
  <rect x="245" y="350" width="20" height="30" fill="#a0522d" /> <!-- Door -->
  <rect x="230" y="340" width="10" height="10" fill="#87ceeb" /> <!-- Window -->
  <rect x="270" y="340" width="10" height="10" fill="#87ceeb" /> <!-- Window -->
  
  <!-- House 3 -->
  <rect x="400" y="310" width="90" height="70" fill="#eee8aa" />
  <polygon points="400,310 445,260 490,310" fill="#cd853f" />
  <rect x="430" y="340" width="30" height="40" fill="#cd853f" /> <!-- Door -->
  <rect x="415" y="320" width="20" height="20" fill="#add8e6" /> <!-- Window -->
  <rect x="455" y="320" width="20" height="20" fill="#add8e6" /> <!-- Window -->
  
  <!-- Mosque or community building -->
  <rect x="550" y="300" width="100" height="80" fill="#f5f5dc" />
  <rect x="580" y="240" width="40" height="60" fill="#f5f5dc" />
  <circle cx="600" cy="230" r="20" fill="#d2b48c" />
  <rect x="590" y="340" width="20" height="40" fill="#8b4513" /> <!-- Door -->
  <rect x="560" y="320" width="15" height="25" fill="#add8e6" /> <!-- Window -->
  <rect x="585" y="320" width="15" height="25" fill="#add8e6" /> <!-- Window -->
  <rect x="610" y="320" width="15" height="25" fill="#add8e6" /> <!-- Window -->
  <rect x="635" y="320" width="15" height="25" fill="#add8e6" /> <!-- Window -->
  
  <!-- Palm trees -->
  <rect x="350" y="330" width="10" height="50" fill="#8b4513" />
  <path d="M355,330 C340,310 330,320 345,300 C320,290 340,270 350,280 C330,260 360,250 370,270 C380,250 390,270 375,280 C400,270 380,300 365,300 C380,320 360,310 355,330" fill="#556b2f" />
  
  <rect x="650" y="340" width="8" height="40" fill="#8b4513" />
  <path d="M654,340 C644,320 634,330 649,310 C624,300 644,280 654,290 C634,270 664,260 674,280 C684,260 694,280 679,290 C704,280 684,310 669,310 C684,330 664,320 654,340" fill="#556b2f" />
</svg>
